<?xml version="1.0" encoding="UTF-8"?>
<svg id="Layer_2" data-name="Layer 2" xmlns="http://www.w3.org/2000/svg" viewBox="0 0 138.74 46.98">
  <defs>
    <style>
      .cls-1 {
        fill: #2b353a;
      }

      .cls-2 {
        fill: #efd133;
      }
    </style>
  </defs>
  <g id="Layer_1-2" data-name="Layer 1">
    <g>
      <g>
        <g>
          <polygon class="cls-1" points="125.65 12.67 123.8 12.67 121.72 10.15 121.61 10.02 120.94 9.21 120.44 8.6 119.89 7.93 119.44 7.39 117.84 5.46 114.85 1.83 114.63 1.57 114.36 1.95 113.49 3.12 112.61 4.3 107.75 10.88 105.33 8.44 105.19 8.29 104.97 8.24 104.85 8.21 104.34 8.09 103.35 7.86 103.35 6.84 102.82 6.72 101.31 6.37 100.4 6.15 100.4 7.18 97.85 6.59 96.35 6.24 95.47 6.04 97.36 4.14 97.51 4.1 98.16 3.95 100.09 3.5 100.09 2.2 102 1.76 102 5.51 102.65 4.86 102.65 2.91 106.39 2.04 108.3 1.6 110.11 1.18 111.6 .83 113.64 .36 115.19 0 115.19 0 115.51 .39 116 .98 118.72 4.27 120.46 6.38 120.94 6.96 121.61 7.78 121.74 7.93 122.29 8.6 123.11 9.59 125.65 12.67"/>
          <rect class="cls-1" x="115.31" y="8.89" width="1.5" height="1.39"/>
          <polygon class="cls-1" points="116.81 7.01 116.81 8.22 115.8 8.22 115.31 8.22 115.31 6.83 116.81 6.83 116.81 7.01"/>
          <rect class="cls-1" x="113.14" y="6.83" width="1.5" height="1.39"/>
          <polygon class="cls-1" points="114.64 9.79 114.64 10.28 114.16 10.28 113.14 10.28 113.14 8.89 114.64 8.89 114.64 9.79"/>
        </g>
        <polygon class="cls-1" points="111.45 15.56 97.63 15.56 97.47 15.33 95.5 12.67 92.76 8.96 92.68 8.86 92.07 8.03 91.38 7.1 91.16 6.81 90.99 7.01 88.63 9.87 87.37 11.4 87.02 11.82 86.59 12.35 86.19 12.83 85.66 13.47 85.58 13.57 83.94 15.56 82.48 15.56 84.48 13.13 85.13 12.35 85.56 11.82 85.66 11.7 86.19 11.06 86.57 10.6 87.94 8.94 90.09 6.34 90.47 5.87 90.72 5.57 90.73 5.57 91.95 5.85 93.55 6.23 94.73 6.5 94.96 6.55 96.16 6.83 97.66 7.18 100.61 7.86 100.61 9.4 101.12 9.92 101.12 6.96 102.63 7.31 102.63 8.33 104.15 8.68 104.66 8.8 104.78 8.83 107.35 11.42 111.25 15.35 111.45 15.56"/>
        <rect class="cls-1" x="89.45" y="12.58" width="1.18" height="1.06"/>
        <polygon class="cls-1" points="89.45 11.13 89.45 12.05 90.24 12.05 90.63 12.05 90.63 10.99 89.45 10.99 89.45 11.13"/>
        <rect class="cls-1" x="91.16" y="10.99" width="1.18" height="1.06"/>
        <polygon class="cls-1" points="91.16 13.28 91.16 13.64 91.54 13.64 92.34 13.64 92.34 12.58 91.16 12.58 91.16 13.28"/>
      </g>
      <path class="cls-2" d="M48.56,37.26l-3.85,7.53h-1.84l5.97-11.79,14.02,2.58,2.5-4.01,3.57-16.47-6.28,10.88-1.39-1.72.81-4.67-2.45,2.64-4.77-5.89,1.54-.3.6-3.75-3.71.74-.23,1.42-15.12-8.27-7.47,3.61-16.67,2.48L0,24.46l5.26,20.34H0v2.04h68.93v-2.04h-16.53l-3.85-7.53h0s0,0,0,0ZM33.26,44.79h-12.33l-2.62-6.64-1.7,6.64h-1.61l1.97-7.38,17.49-3.61-1.21,10.99h0,0Z"/>
      <g>
        <path class="cls-1" d="M89.18,38.67l-2.44-5.68h-12.12l-2.44,5.68h-2.38l9.58-22.25h2.66l9.62,22.25h-2.48ZM85.85,30.86l-5.19-12.02-5.16,12.02h10.35ZM114.91,27.5c0,2.11-.49,4.03-1.44,5.77-.98,1.74-2.32,3.11-4.03,4.12-1.74,1.01-3.63,1.53-5.77,1.53s-3.02-.31-4.43-.88c-1.37-.58-2.57-1.37-3.54-2.41-.98-.98-1.74-2.17-2.32-3.57-.55-1.4-.86-2.87-.86-4.43s.49-4.03,1.47-5.77c.95-1.74,2.29-3.14,4.03-4.15,1.71-1.01,3.63-1.49,5.74-1.49s3.02.27,4.43.86c1.37.61,2.57,1.4,3.54,2.38.98,1.04,1.77,2.23,2.32,3.6.58,1.4.86,2.87.86,4.46h0ZM112.5,27.62c0-2.5-.92-4.82-2.44-6.5s-3.82-2.75-6.38-2.75-3.14.43-4.49,1.22c-1.34.86-2.38,1.95-3.11,3.33-.73,1.4-1.1,2.93-1.1,4.58,0,2.47.92,4.82,2.44,6.47,1.53,1.68,3.82,2.75,6.35,2.75s3.14-.43,4.49-1.25c1.37-.79,2.41-1.92,3.14-3.3s1.1-2.9,1.1-4.55h0ZM138.25,22.8l-2.23.79c-.27-.79-.64-1.62-1.53-2.62-.43-.46-.92-.92-1.47-1.28-1.1-.76-2.81-1.31-4.67-1.31s-3.18.4-4.52,1.25-2.38,1.95-3.11,3.36c-.73,1.37-1.1,2.87-1.1,4.52,0,2.5.86,4.82,2.32,6.5,1.49,1.68,3.82,2.72,6.44,2.72s3.88-.64,5.31-1.74,2.41-2.87,2.53-4.92h-9.28v-2.17h11.78v.86c0,2.81-1.01,5.34-2.75,7.17-1.77,1.83-4.49,2.96-7.63,2.96s-6.23-1.22-8.12-3.23-3.02-4.88-3.02-8.03.49-4.06,1.47-5.8,2.32-3.11,4.03-4.12,3.63-1.49,5.71-1.49,4.95.73,6.53,2.01c1.62,1.25,2.69,2.78,3.3,4.58h0s0,0,0,0Z"/>
        <g>
          <path class="cls-1" d="M72.76,46.88l-1.03-1.88h-.82v1.88h-1.11v-5.24h2.45c1.09,0,1.76.71,1.76,1.69s-.58,1.42-1.15,1.55l1.18,1.99h-1.28ZM72.09,42.6h-1.17v1.44h1.17c.45,0,.79-.28.79-.72s-.34-.72-.79-.72Z"/>
          <path class="cls-1" d="M74.85,46.88v-5.24h3.71v.96h-2.59v1.14h2.54v.96h-2.54v1.22h2.59v.97h-3.71Z"/>
          <path class="cls-1" d="M83.09,46.88l-.33-.9h-2.34l-.33.9h-1.22l2.03-5.24h1.4l2.02,5.24h-1.22ZM81.59,42.61l-.87,2.4h1.74l-.86-2.4Z"/>
          <path class="cls-1" d="M84.8,46.88v-5.24h1.11v4.26h2.21v.98h-3.33Z"/>
          <path class="cls-1" d="M89.33,46.88v-4.26h-1.53v-.98h4.18v.98h-1.52v4.26h-1.12Z"/>
          <path class="cls-1" d="M94.15,46.88v-2.14l-2.02-3.09h1.27l1.3,2.1,1.29-2.1h1.27l-2,3.09v2.14h-1.11Z"/>
          <path class="cls-1" d="M103.35,46.88v-2.2h-2.47v2.2h-1.11v-5.24h1.11v2.06h2.47v-2.06h1.12v5.24h-1.12Z"/>
          <path class="cls-1" d="M107.98,41.56c1.59,0,2.74,1.13,2.74,2.71s-1.15,2.71-2.74,2.71-2.73-1.13-2.73-2.71,1.15-2.71,2.73-2.71ZM107.98,42.55c-.97,0-1.59.74-1.59,1.72s.62,1.72,1.59,1.72,1.59-.75,1.59-1.72-.63-1.72-1.59-1.72Z"/>
          <path class="cls-1" d="M111.51,46.88v-5.24h1.11v4.26h2.21v.98h-3.33Z"/>
          <path class="cls-1" d="M115.61,46.88v-5.24h2.06c1.64,0,2.78,1.04,2.78,2.62s-1.14,2.61-2.78,2.61h-2.06ZM116.73,45.9h.95c1.04,0,1.64-.75,1.64-1.63s-.57-1.64-1.64-1.64h-.95v3.27Z"/>
          <path class="cls-1" d="M121.25,46.88v-5.24h1.11v5.24h-1.11Z"/>
          <path class="cls-1" d="M127.01,46.88l-2.5-3.52v3.52h-1.11v-5.24h1.15l2.43,3.39v-3.39h1.11v5.24h-1.08Z"/>
          <path class="cls-1" d="M131.66,41.56c1.08,0,1.77.53,2.17,1.15l-.93.5c-.24-.37-.69-.66-1.24-.66-.95,0-1.64.73-1.64,1.72s.69,1.72,1.64,1.72c.48,0,.9-.2,1.13-.4v-.64h-1.4v-.96h2.5v2c-.53.6-1.28.99-2.23.99-1.53,0-2.79-1.07-2.79-2.72s1.26-2.71,2.79-2.71Z"/>
          <path class="cls-1" d="M135.03,45.29c.37.38.94.71,1.66.71.61,0,.91-.29.91-.59,0-.39-.46-.53-1.06-.67-.86-.2-1.95-.43-1.95-1.6,0-.87.75-1.58,1.99-1.58.83,0,1.52.25,2.04.73l-.62.82c-.42-.39-.99-.57-1.5-.57s-.77.22-.77.53c0,.35.44.46,1.04.6.86.2,1.96.46,1.96,1.62,0,.96-.68,1.68-2.1,1.68-1,0-1.73-.34-2.22-.83l.61-.85Z"/>
        </g>
      </g>
    </g>
  </g>
</svg>